<svg width="136" height="67" viewBox="0 0 136 67" fill="none" xmlns="http://www.w3.org/2000/svg">
<mask id="path-1-outside-1" maskUnits="userSpaceOnUse" x="0" y="0" width="136" height="67" fill="black">
<rect fill="white" width="136" height="67"/>
<path d="M111.639 51.25H103.18V4.46875H111.639V51.25Z"/>
<path d="M119.22 51.25H110.823V17.7812H112.853L115.621 21.75C116.975 20.5 118.513 19.5417 120.235 18.875C121.958 18.1875 123.742 17.8438 125.587 17.8438H133V26.3438H125.587C124.705 26.3438 123.875 26.5104 123.096 26.8438C122.317 27.1771 121.64 27.6354 121.066 28.2188C120.492 28.8021 120.04 29.4896 119.712 30.2812C119.384 31.0729 119.22 31.9167 119.22 32.8125V51.25Z"/>
<path d="M73.7137 8.6875C73.7137 9.47917 73.5599 10.2188 73.2523 10.9062C72.9652 11.5938 72.5654 12.1979 72.0527 12.7188C71.5401 13.2188 70.9352 13.625 70.238 13.9375C69.5613 14.2292 68.8334 14.375 68.0541 14.375C67.2749 14.375 66.5367 14.2292 65.8395 13.9375C65.1628 13.625 64.5682 13.2188 64.0555 12.7188C63.5634 12.1979 63.1635 11.5938 62.856 10.9062C62.5689 10.2188 62.4253 9.47917 62.4253 8.6875C62.4253 7.91667 62.5689 7.1875 62.856 6.5C63.1635 5.79167 63.5634 5.1875 64.0555 4.6875C64.5682 4.16667 65.1628 3.76042 65.8395 3.46875C66.5367 3.15625 67.2749 3 68.0541 3C68.8334 3 69.5613 3.15625 70.238 3.46875C70.9352 3.76042 71.5401 4.16667 72.0527 4.6875C72.5654 5.1875 72.9652 5.79167 73.2523 6.5C73.5599 7.1875 73.7137 7.91667 73.7137 8.6875ZM72.268 51.25H63.8095V17.7812H72.268V51.25Z"/>
<path d="M80.5408 64H72.0823V17.7812H74.1123L77.465 21.8125C78.2237 21.0833 79.0542 20.3958 79.9564 19.75C80.8587 19.1042 81.7917 18.5521 82.7554 18.0938C83.7397 17.6146 84.7547 17.2396 85.8005 16.9688C86.8463 16.6979 87.9024 16.5625 88.9687 16.5625C91.2858 16.5625 93.4594 16.9896 95.4894 17.8438C97.54 18.6771 99.324 19.8646 100.841 21.4062C102.379 22.9479 103.589 24.8125 104.471 27C105.353 29.1667 105.794 31.5729 105.794 34.2188C105.794 36.9688 105.353 39.4479 104.471 41.6562C103.589 43.8438 102.379 45.7083 100.841 47.25C99.324 48.7708 97.54 49.9375 95.4894 50.75C93.4594 51.5625 91.2858 51.9688 88.9687 51.9688C88.2305 51.9688 87.4923 51.8854 86.754 51.7188C86.0364 51.5521 85.3187 51.3333 84.601 51.0625C83.9038 50.7708 83.2066 50.4479 82.5094 50.0938C81.8327 49.7396 81.1765 49.375 80.5408 49V64ZM97.3657 34.2188C97.3657 32.8021 97.1402 31.5312 96.689 30.4062C96.2584 29.2812 95.6637 28.3333 94.905 27.5625C94.1463 26.7708 93.2543 26.1667 92.2291 25.75C91.2038 25.3333 90.117 25.125 88.9687 25.125C87.8203 25.125 86.7335 25.3333 85.7083 25.75C84.7035 26.1667 83.8217 26.7708 83.063 27.5625C82.3043 28.3333 81.6994 29.2812 81.2483 30.4062C80.8177 31.5312 80.6024 32.8021 80.6024 34.2188C80.6024 35.5729 80.8177 36.8125 81.2483 37.9375C81.6994 39.0625 82.3043 40.0208 83.063 40.8125C83.8217 41.6042 84.7035 42.2188 85.7083 42.6562C86.7335 43.0938 87.8203 43.3125 88.9687 43.3125C90.117 43.3125 91.2038 43.0938 92.2291 42.6562C93.2543 42.2188 94.1463 41.6042 94.905 40.8125C95.6637 40.0208 96.2584 39.0625 96.689 37.9375C97.1402 36.8125 97.3657 35.5729 97.3657 34.2188Z"/>
<path d="M36.6498 64H28.1912V49C27.5555 49.375 26.8993 49.7396 26.2226 50.0938C25.5665 50.4479 24.8795 50.7708 24.1618 51.0625C23.4646 51.3333 22.7469 51.5521 22.0087 51.7188C21.291 51.8854 20.5631 51.9688 19.8249 51.9688C17.5077 51.9688 15.3239 51.5417 13.2733 50.6875C11.2433 49.8125 9.45928 48.5938 7.92135 47.0312C6.40394 45.4688 5.20436 43.6042 4.32261 41.4375C3.44087 39.25 3 36.8438 3 34.2188C3 31.5729 3.44087 29.1667 4.32261 27C5.20436 24.8125 6.40394 22.9479 7.92135 21.4062C9.45928 19.8646 11.2433 18.6771 13.2733 17.8438C15.3239 16.9896 17.5077 16.5625 19.8249 16.5625C20.8912 16.5625 21.937 16.6979 22.9622 16.9688C24.008 17.2396 25.0231 17.6146 26.0073 18.0938C26.9916 18.5521 27.9246 19.1042 28.8063 19.75C29.7086 20.3958 30.5596 21.0833 31.3593 21.8125L34.6197 17.8438H36.6498V64ZM28.1912 34.2188C28.1912 33.0521 27.9656 31.9271 27.5145 30.8438C27.0839 29.7396 26.4892 28.7708 25.7305 27.9375C24.9718 27.0833 24.0798 26.4062 23.0545 25.9062C22.0497 25.3854 20.9732 25.125 19.8249 25.125C18.6766 25.125 17.5898 25.3438 16.5645 25.7812C15.5597 26.1979 14.678 26.8021 13.9193 27.5938C13.181 28.3854 12.5966 29.3438 12.166 30.4688C11.7354 31.5729 11.5201 32.8229 11.5201 34.2188C11.5201 35.6562 11.7354 36.9479 12.166 38.0938C12.5966 39.2188 13.181 40.1667 13.9193 40.9375C14.678 41.7083 15.5597 42.3021 16.5645 42.7188C17.5898 43.1146 18.6766 43.3125 19.8249 43.3125C20.9732 43.3125 22.0497 43.0625 23.0545 42.5625C24.0798 42.0417 24.9718 41.3646 25.7305 40.5312C26.4892 39.6771 27.0839 38.7083 27.5145 37.625C27.9656 36.5208 28.1912 35.3854 28.1912 34.2188Z"/>
<path d="M60.3559 47.3438C59.6792 47.9688 58.9513 48.5625 58.1721 49.125C57.4134 49.6667 56.6136 50.1458 55.7729 50.5625C54.9322 50.9583 54.0607 51.2708 53.1584 51.5C52.2767 51.75 51.3744 51.875 50.4517 51.875C48.4216 51.875 46.5146 51.5104 44.7306 50.7812C42.9466 50.0521 41.3779 49.0208 40.0246 47.6875C38.6917 46.3333 37.6357 44.6979 36.8564 42.7812C36.0977 40.8438 35.7184 38.6771 35.7184 36.2812V17.7812H44.0847V36.2812C44.0847 37.4062 44.2487 38.4167 44.5768 39.3125C44.9254 40.1875 45.3868 40.9271 45.961 41.5312C46.5351 42.1354 47.2015 42.5938 47.9603 42.9062C48.7395 43.2188 49.5699 43.375 50.4517 43.375C51.3129 43.375 52.1229 43.1771 52.8816 42.7812C53.6608 42.3646 54.3375 41.8229 54.9117 41.1562C55.4858 40.4896 55.9369 39.7396 56.265 38.9062C56.5931 38.0521 56.7572 37.1771 56.7572 36.2812V17.7812H65.1542V51.25H63.1242L60.3559 47.3438Z"/>
</mask>
<path d="M111.639 51.25H103.18V4.46875H111.639V51.25Z" fill="url(#paint0_linear)"/>
<path d="M119.22 51.25H110.823V17.7812H112.853L115.621 21.75C116.975 20.5 118.513 19.5417 120.235 18.875C121.958 18.1875 123.742 17.8438 125.587 17.8438H133V26.3438H125.587C124.705 26.3438 123.875 26.5104 123.096 26.8438C122.317 27.1771 121.64 27.6354 121.066 28.2188C120.492 28.8021 120.04 29.4896 119.712 30.2812C119.384 31.0729 119.22 31.9167 119.22 32.8125V51.25Z" fill="url(#paint1_linear)"/>
<path d="M73.7137 8.6875C73.7137 9.47917 73.5599 10.2188 73.2523 10.9062C72.9652 11.5938 72.5654 12.1979 72.0527 12.7188C71.5401 13.2188 70.9352 13.625 70.238 13.9375C69.5613 14.2292 68.8334 14.375 68.0541 14.375C67.2749 14.375 66.5367 14.2292 65.8395 13.9375C65.1628 13.625 64.5682 13.2188 64.0555 12.7188C63.5634 12.1979 63.1635 11.5938 62.856 10.9062C62.5689 10.2188 62.4253 9.47917 62.4253 8.6875C62.4253 7.91667 62.5689 7.1875 62.856 6.5C63.1635 5.79167 63.5634 5.1875 64.0555 4.6875C64.5682 4.16667 65.1628 3.76042 65.8395 3.46875C66.5367 3.15625 67.2749 3 68.0541 3C68.8334 3 69.5613 3.15625 70.238 3.46875C70.9352 3.76042 71.5401 4.16667 72.0527 4.6875C72.5654 5.1875 72.9652 5.79167 73.2523 6.5C73.5599 7.1875 73.7137 7.91667 73.7137 8.6875ZM72.268 51.25H63.8095V17.7812H72.268V51.25Z" fill="url(#paint2_linear)"/>
<path d="M80.5408 64H72.0823V17.7812H74.1123L77.465 21.8125C78.2237 21.0833 79.0542 20.3958 79.9564 19.75C80.8587 19.1042 81.7917 18.5521 82.7554 18.0938C83.7397 17.6146 84.7547 17.2396 85.8005 16.9688C86.8463 16.6979 87.9024 16.5625 88.9687 16.5625C91.2858 16.5625 93.4594 16.9896 95.4894 17.8438C97.54 18.6771 99.324 19.8646 100.841 21.4062C102.379 22.9479 103.589 24.8125 104.471 27C105.353 29.1667 105.794 31.5729 105.794 34.2188C105.794 36.9688 105.353 39.4479 104.471 41.6562C103.589 43.8438 102.379 45.7083 100.841 47.25C99.324 48.7708 97.54 49.9375 95.4894 50.75C93.4594 51.5625 91.2858 51.9688 88.9687 51.9688C88.2305 51.9688 87.4923 51.8854 86.754 51.7188C86.0364 51.5521 85.3187 51.3333 84.601 51.0625C83.9038 50.7708 83.2066 50.4479 82.5094 50.0938C81.8327 49.7396 81.1765 49.375 80.5408 49V64ZM97.3657 34.2188C97.3657 32.8021 97.1402 31.5312 96.689 30.4062C96.2584 29.2812 95.6637 28.3333 94.905 27.5625C94.1463 26.7708 93.2543 26.1667 92.2291 25.75C91.2038 25.3333 90.117 25.125 88.9687 25.125C87.8203 25.125 86.7335 25.3333 85.7083 25.75C84.7035 26.1667 83.8217 26.7708 83.063 27.5625C82.3043 28.3333 81.6994 29.2812 81.2483 30.4062C80.8177 31.5312 80.6024 32.8021 80.6024 34.2188C80.6024 35.5729 80.8177 36.8125 81.2483 37.9375C81.6994 39.0625 82.3043 40.0208 83.063 40.8125C83.8217 41.6042 84.7035 42.2188 85.7083 42.6562C86.7335 43.0938 87.8203 43.3125 88.9687 43.3125C90.117 43.3125 91.2038 43.0938 92.2291 42.6562C93.2543 42.2188 94.1463 41.6042 94.905 40.8125C95.6637 40.0208 96.2584 39.0625 96.689 37.9375C97.1402 36.8125 97.3657 35.5729 97.3657 34.2188Z" fill="url(#paint3_linear)"/>
<path d="M36.6498 64H28.1912V49C27.5555 49.375 26.8993 49.7396 26.2226 50.0938C25.5665 50.4479 24.8795 50.7708 24.1618 51.0625C23.4646 51.3333 22.7469 51.5521 22.0087 51.7188C21.291 51.8854 20.5631 51.9688 19.8249 51.9688C17.5077 51.9688 15.3239 51.5417 13.2733 50.6875C11.2433 49.8125 9.45928 48.5938 7.92135 47.0312C6.40394 45.4688 5.20436 43.6042 4.32261 41.4375C3.44087 39.25 3 36.8438 3 34.2188C3 31.5729 3.44087 29.1667 4.32261 27C5.20436 24.8125 6.40394 22.9479 7.92135 21.4062C9.45928 19.8646 11.2433 18.6771 13.2733 17.8438C15.3239 16.9896 17.5077 16.5625 19.8249 16.5625C20.8912 16.5625 21.937 16.6979 22.9622 16.9688C24.008 17.2396 25.0231 17.6146 26.0073 18.0938C26.9916 18.5521 27.9246 19.1042 28.8063 19.75C29.7086 20.3958 30.5596 21.0833 31.3593 21.8125L34.6197 17.8438H36.6498V64ZM28.1912 34.2188C28.1912 33.0521 27.9656 31.9271 27.5145 30.8438C27.0839 29.7396 26.4892 28.7708 25.7305 27.9375C24.9718 27.0833 24.0798 26.4062 23.0545 25.9062C22.0497 25.3854 20.9732 25.125 19.8249 25.125C18.6766 25.125 17.5898 25.3438 16.5645 25.7812C15.5597 26.1979 14.678 26.8021 13.9193 27.5938C13.181 28.3854 12.5966 29.3438 12.166 30.4688C11.7354 31.5729 11.5201 32.8229 11.5201 34.2188C11.5201 35.6562 11.7354 36.9479 12.166 38.0938C12.5966 39.2188 13.181 40.1667 13.9193 40.9375C14.678 41.7083 15.5597 42.3021 16.5645 42.7188C17.5898 43.1146 18.6766 43.3125 19.8249 43.3125C20.9732 43.3125 22.0497 43.0625 23.0545 42.5625C24.0798 42.0417 24.9718 41.3646 25.7305 40.5312C26.4892 39.6771 27.0839 38.7083 27.5145 37.625C27.9656 36.5208 28.1912 35.3854 28.1912 34.2188Z" fill="url(#paint4_linear)"/>
<path d="M60.3559 47.3438C59.6792 47.9688 58.9513 48.5625 58.1721 49.125C57.4134 49.6667 56.6136 50.1458 55.7729 50.5625C54.9322 50.9583 54.0607 51.2708 53.1584 51.5C52.2767 51.75 51.3744 51.875 50.4517 51.875C48.4216 51.875 46.5146 51.5104 44.7306 50.7812C42.9466 50.0521 41.3779 49.0208 40.0246 47.6875C38.6917 46.3333 37.6357 44.6979 36.8564 42.7812C36.0977 40.8438 35.7184 38.6771 35.7184 36.2812V17.7812H44.0847V36.2812C44.0847 37.4062 44.2487 38.4167 44.5768 39.3125C44.9254 40.1875 45.3868 40.9271 45.961 41.5312C46.5351 42.1354 47.2015 42.5938 47.9603 42.9062C48.7395 43.2188 49.5699 43.375 50.4517 43.375C51.3129 43.375 52.1229 43.1771 52.8816 42.7812C53.6608 42.3646 54.3375 41.8229 54.9117 41.1562C55.4858 40.4896 55.9369 39.7396 56.265 38.9062C56.5931 38.0521 56.7572 37.1771 56.7572 36.2812V17.7812H65.1542V51.25H63.1242L60.3559 47.3438Z" fill="url(#paint5_linear)"/>
<path d="M111.639 51.25H103.18V4.46875H111.639V51.25Z" stroke="black" stroke-width="6" stroke-linecap="round" stroke-linejoin="round" mask="url(#path-1-outside-1)"/>
<path d="M119.22 51.25H110.823V17.7812H112.853L115.621 21.75C116.975 20.5 118.513 19.5417 120.235 18.875C121.958 18.1875 123.742 17.8438 125.587 17.8438H133V26.3438H125.587C124.705 26.3438 123.875 26.5104 123.096 26.8438C122.317 27.1771 121.64 27.6354 121.066 28.2188C120.492 28.8021 120.04 29.4896 119.712 30.2812C119.384 31.0729 119.22 31.9167 119.22 32.8125V51.25Z" stroke="black" stroke-width="6" stroke-linecap="round" stroke-linejoin="round" mask="url(#path-1-outside-1)"/>
<path d="M73.7137 8.6875C73.7137 9.47917 73.5599 10.2188 73.2523 10.9062C72.9652 11.5938 72.5654 12.1979 72.0527 12.7188C71.5401 13.2188 70.9352 13.625 70.238 13.9375C69.5613 14.2292 68.8334 14.375 68.0541 14.375C67.2749 14.375 66.5367 14.2292 65.8395 13.9375C65.1628 13.625 64.5682 13.2188 64.0555 12.7188C63.5634 12.1979 63.1635 11.5938 62.856 10.9062C62.5689 10.2188 62.4253 9.47917 62.4253 8.6875C62.4253 7.91667 62.5689 7.1875 62.856 6.5C63.1635 5.79167 63.5634 5.1875 64.0555 4.6875C64.5682 4.16667 65.1628 3.76042 65.8395 3.46875C66.5367 3.15625 67.2749 3 68.0541 3C68.8334 3 69.5613 3.15625 70.238 3.46875C70.9352 3.76042 71.5401 4.16667 72.0527 4.6875C72.5654 5.1875 72.9652 5.79167 73.2523 6.5C73.5599 7.1875 73.7137 7.91667 73.7137 8.6875ZM72.268 51.25H63.8095V17.7812H72.268V51.25Z" stroke="black" stroke-width="6" stroke-linecap="round" stroke-linejoin="round" mask="url(#path-1-outside-1)"/>
<path d="M80.5408 64H72.0823V17.7812H74.1123L77.465 21.8125C78.2237 21.0833 79.0542 20.3958 79.9564 19.75C80.8587 19.1042 81.7917 18.5521 82.7554 18.0938C83.7397 17.6146 84.7547 17.2396 85.8005 16.9688C86.8463 16.6979 87.9024 16.5625 88.9687 16.5625C91.2858 16.5625 93.4594 16.9896 95.4894 17.8438C97.54 18.6771 99.324 19.8646 100.841 21.4062C102.379 22.9479 103.589 24.8125 104.471 27C105.353 29.1667 105.794 31.5729 105.794 34.2188C105.794 36.9688 105.353 39.4479 104.471 41.6562C103.589 43.8438 102.379 45.7083 100.841 47.25C99.324 48.7708 97.54 49.9375 95.4894 50.75C93.4594 51.5625 91.2858 51.9688 88.9687 51.9688C88.2305 51.9688 87.4923 51.8854 86.754 51.7188C86.0364 51.5521 85.3187 51.3333 84.601 51.0625C83.9038 50.7708 83.2066 50.4479 82.5094 50.0938C81.8327 49.7396 81.1765 49.375 80.5408 49V64ZM97.3657 34.2188C97.3657 32.8021 97.1402 31.5312 96.689 30.4062C96.2584 29.2812 95.6637 28.3333 94.905 27.5625C94.1463 26.7708 93.2543 26.1667 92.2291 25.75C91.2038 25.3333 90.117 25.125 88.9687 25.125C87.8203 25.125 86.7335 25.3333 85.7083 25.75C84.7035 26.1667 83.8217 26.7708 83.063 27.5625C82.3043 28.3333 81.6994 29.2812 81.2483 30.4062C80.8177 31.5312 80.6024 32.8021 80.6024 34.2188C80.6024 35.5729 80.8177 36.8125 81.2483 37.9375C81.6994 39.0625 82.3043 40.0208 83.063 40.8125C83.8217 41.6042 84.7035 42.2188 85.7083 42.6562C86.7335 43.0938 87.8203 43.3125 88.9687 43.3125C90.117 43.3125 91.2038 43.0938 92.2291 42.6562C93.2543 42.2188 94.1463 41.6042 94.905 40.8125C95.6637 40.0208 96.2584 39.0625 96.689 37.9375C97.1402 36.8125 97.3657 35.5729 97.3657 34.2188Z" stroke="black" stroke-width="6" stroke-linecap="round" stroke-linejoin="round" mask="url(#path-1-outside-1)"/>
<path d="M36.6498 64H28.1912V49C27.5555 49.375 26.8993 49.7396 26.2226 50.0938C25.5665 50.4479 24.8795 50.7708 24.1618 51.0625C23.4646 51.3333 22.7469 51.5521 22.0087 51.7188C21.291 51.8854 20.5631 51.9688 19.8249 51.9688C17.5077 51.9688 15.3239 51.5417 13.2733 50.6875C11.2433 49.8125 9.45928 48.5938 7.92135 47.0312C6.40394 45.4688 5.20436 43.6042 4.32261 41.4375C3.44087 39.25 3 36.8438 3 34.2188C3 31.5729 3.44087 29.1667 4.32261 27C5.20436 24.8125 6.40394 22.9479 7.92135 21.4062C9.45928 19.8646 11.2433 18.6771 13.2733 17.8438C15.3239 16.9896 17.5077 16.5625 19.8249 16.5625C20.8912 16.5625 21.937 16.6979 22.9622 16.9688C24.008 17.2396 25.0231 17.6146 26.0073 18.0938C26.9916 18.5521 27.9246 19.1042 28.8063 19.75C29.7086 20.3958 30.5596 21.0833 31.3593 21.8125L34.6197 17.8438H36.6498V64ZM28.1912 34.2188C28.1912 33.0521 27.9656 31.9271 27.5145 30.8438C27.0839 29.7396 26.4892 28.7708 25.7305 27.9375C24.9718 27.0833 24.0798 26.4062 23.0545 25.9062C22.0497 25.3854 20.9732 25.125 19.8249 25.125C18.6766 25.125 17.5898 25.3438 16.5645 25.7812C15.5597 26.1979 14.678 26.8021 13.9193 27.5938C13.181 28.3854 12.5966 29.3438 12.166 30.4688C11.7354 31.5729 11.5201 32.8229 11.5201 34.2188C11.5201 35.6562 11.7354 36.9479 12.166 38.0938C12.5966 39.2188 13.181 40.1667 13.9193 40.9375C14.678 41.7083 15.5597 42.3021 16.5645 42.7188C17.5898 43.1146 18.6766 43.3125 19.8249 43.3125C20.9732 43.3125 22.0497 43.0625 23.0545 42.5625C24.0798 42.0417 24.9718 41.3646 25.7305 40.5312C26.4892 39.6771 27.0839 38.7083 27.5145 37.625C27.9656 36.5208 28.1912 35.3854 28.1912 34.2188Z" stroke="black" stroke-width="6" stroke-linecap="round" stroke-linejoin="round" mask="url(#path-1-outside-1)"/>
<path d="M60.3559 47.3438C59.6792 47.9688 58.9513 48.5625 58.1721 49.125C57.4134 49.6667 56.6136 50.1458 55.7729 50.5625C54.9322 50.9583 54.0607 51.2708 53.1584 51.5C52.2767 51.75 51.3744 51.875 50.4517 51.875C48.4216 51.875 46.5146 51.5104 44.7306 50.7812C42.9466 50.0521 41.3779 49.0208 40.0246 47.6875C38.6917 46.3333 37.6357 44.6979 36.8564 42.7812C36.0977 40.8438 35.7184 38.6771 35.7184 36.2812V17.7812H44.0847V36.2812C44.0847 37.4062 44.2487 38.4167 44.5768 39.3125C44.9254 40.1875 45.3868 40.9271 45.961 41.5312C46.5351 42.1354 47.2015 42.5938 47.9603 42.9062C48.7395 43.2188 49.5699 43.375 50.4517 43.375C51.3129 43.375 52.1229 43.1771 52.8816 42.7812C53.6608 42.3646 54.3375 41.8229 54.9117 41.1562C55.4858 40.4896 55.9369 39.7396 56.265 38.9062C56.5931 38.0521 56.7572 37.1771 56.7572 36.2812V17.7812H65.1542V51.25H63.1242L60.3559 47.3438Z" stroke="black" stroke-width="6" stroke-linecap="round" stroke-linejoin="round" mask="url(#path-1-outside-1)"/>
<line x1="70.5" y1="17" x2="70.5" y2="52" stroke="black" stroke-width="3"/>
<defs>
<linearGradient id="paint0_linear" x1="3" y1="33.5" x2="133" y2="33.5" gradientUnits="userSpaceOnUse">
<stop stop-color="#FF512F"/>
<stop offset="1" stop-color="#F09819"/>
</linearGradient>
<linearGradient id="paint1_linear" x1="3" y1="33.5" x2="133" y2="33.5" gradientUnits="userSpaceOnUse">
<stop stop-color="#FF512F"/>
<stop offset="1" stop-color="#F09819"/>
</linearGradient>
<linearGradient id="paint2_linear" x1="3" y1="33.5" x2="133" y2="33.5" gradientUnits="userSpaceOnUse">
<stop stop-color="#FF512F"/>
<stop offset="1" stop-color="#F09819"/>
</linearGradient>
<linearGradient id="paint3_linear" x1="3" y1="33.5" x2="133" y2="33.5" gradientUnits="userSpaceOnUse">
<stop stop-color="#FF512F"/>
<stop offset="1" stop-color="#F09819"/>
</linearGradient>
<linearGradient id="paint4_linear" x1="3" y1="33.5" x2="133" y2="33.5" gradientUnits="userSpaceOnUse">
<stop stop-color="#FF512F"/>
<stop offset="1" stop-color="#F09819"/>
</linearGradient>
<linearGradient id="paint5_linear" x1="3" y1="33.5" x2="133" y2="33.5" gradientUnits="userSpaceOnUse">
<stop stop-color="#FF512F"/>
<stop offset="1" stop-color="#F09819"/>
</linearGradient>
</defs>
</svg>
