<svg width="258" height="196" viewBox="0 0 258 196" fill="none" xmlns="http://www.w3.org/2000/svg">
<path d="M12.8154 180.571C12.2616 178.053 11.5404 175.9 10.6518 174.115C9.88632 172.137 9.07659 170.335 8.22259 168.707C7.52636 167.044 6.89169 165.285 6.3186 163.431C5.74551 161.576 5.49759 159.32 5.57485 156.663C4.79008 155.35 4.02261 154.116 3.27244 152.96C2.48767 151.647 1.70289 150.333 0.918118 149.02C-0.323861 141.867 -0.30578 135.18 0.972361 128.96C2.21589 122.583 4.13272 116.635 6.72283 111.118C9.27834 105.444 12.2532 100.172 15.6474 95.3039C19.007 90.2782 22.2434 85.4446 25.3567 80.8028C26.3186 81.4173 26.9054 81.4538 27.117 80.9125C27.4519 80.1791 28.3638 79.8145 29.8529 79.8185C29.803 78.8394 30.0167 77.5551 30.4939 75.9655C30.9712 74.376 31.6409 72.9093 32.5029 71.5656C33.4881 70.0298 34.6041 68.713 35.8509 67.615C37.0976 66.517 38.3694 65.9086 39.666 65.7897C40.586 62.4532 42.3813 59.3376 45.0519 56.4428C47.8457 53.3561 50.6568 50.3481 53.4852 47.4188C56.3135 44.4895 58.7745 41.3932 60.868 38.1297C62.9615 34.8663 63.8911 31.1977 63.6569 27.1239L68.3896 26.0877C65.8735 23.6685 64.3656 20.946 63.8657 17.9204C63.3313 14.7373 63.724 12.0112 65.044 9.74215C66.4872 7.28113 68.7345 5.46909 71.7858 4.30604C74.8371 3.14299 78.6386 3.13575 83.1903 4.28431C84.9949 4.21924 86.1088 3.64535 86.5322 2.56263C86.9556 1.47991 87.8426 0.6257 89.1932 0C97.1423 1.55979 104.458 4.00069 111.141 7.3227C117.824 10.6447 124.094 14.7173 129.949 19.5405C129.738 20.0819 129.43 20.5618 129.026 20.9803C128.745 21.2068 128.481 21.512 128.235 21.8959C127.954 22.1224 127.769 22.4104 127.681 22.7598C127.75 23.0746 128.152 23.3991 128.887 23.7333C135.739 29.3283 142.143 35.5166 148.098 42.298C154.019 48.922 159.728 56.0873 165.226 63.794C167.433 70.0759 169.089 76.4786 170.193 83.0022C171.261 89.3684 171.865 96.249 172.002 103.644C171.329 106.597 170.384 109.444 169.168 112.185C168.075 114.734 166.824 117.318 165.415 119.937C163.972 122.398 162.546 124.937 161.138 127.556C159.695 130.017 158.444 132.601 157.385 135.308L163.485 143.872C163.604 145.166 164.152 146.531 165.129 147.968C166.072 149.246 167.032 150.604 168.009 152.04C168.951 153.319 169.736 154.632 170.363 155.98C171.148 157.293 171.407 158.473 171.142 159.522C171.823 160.363 172.917 160.453 174.426 159.793C173.864 160.246 173.529 160.979 173.421 161.993C173.471 162.972 174.329 163.114 175.995 162.419C176.061 164.22 175.783 166.343 175.164 168.789C174.544 171.235 173.574 173.592 172.254 175.861C170.969 178.288 169.202 180.407 166.955 182.219C164.9 184.154 162.374 185.449 159.376 186.106C155.875 185.222 153.005 184.201 150.766 183.041C148.684 181.846 146.139 180.424 143.131 178.772L129.858 160.145C119.484 167.861 108.113 174.806 95.7462 180.978C83.3444 186.994 69.8943 192.001 55.3958 196C47.0233 195.523 39.1877 194.103 31.8889 191.741C24.5902 189.379 18.2323 185.656 12.8154 180.571ZM59.9253 104.916C54.23 112.103 49.3733 120.096 45.3553 128.896C41.4951 137.661 38.816 146.911 37.3182 156.644C38.911 157.12 40.7502 157.213 42.8357 156.921C44.9212 156.629 46.8835 156.53 48.7227 156.622C57.1611 152.135 65.8708 147.753 74.8518 143.477C83.9559 139.008 92.5445 134.075 100.618 128.678C96.02 125.064 91.6148 121.574 87.402 118.206C83.3469 114.803 79.9229 111.263 77.1299 107.584C77.3955 106.536 77.5476 105.348 77.5863 104.019C77.7827 102.656 78.0579 101.276 78.4121 99.8783C78.7662 98.4807 79.3916 97.1887 80.2883 96.0024C81.1849 94.8161 82.5798 94.0157 84.4729 93.6012C87.5548 94.0815 91.0062 93.9859 94.827 93.3144C98.8056 92.6084 102.442 92.2248 105.735 92.1638C109.375 93.677 112.741 95.8276 115.835 98.6155C118.893 101.246 121.952 103.876 125.01 106.507C127.789 102.598 130.025 98.4789 131.718 94.148C133.377 89.6597 134.301 84.8372 134.49 79.6807C132.99 77.3691 131.184 74.7944 129.072 71.9567C126.96 69.119 124.628 66.4118 122.078 63.8352C119.685 61.224 117.045 58.9967 114.16 57.1534C111.432 55.2755 108.641 54.2366 105.786 54.0366C104.455 53.998 103.639 54.4241 103.339 55.3149C103.161 56.0137 102.232 56.2996 100.551 56.1727C93.3817 64.1775 86.1953 72.1035 78.9915 79.9508C71.7531 87.6407 65.3978 95.9623 59.9253 104.916Z" fill="#EB5757"/>
<path d="M12.8154 180.571C12.2616 178.053 11.5404 175.9 10.6518 174.115C9.88632 172.137 9.07659 170.335 8.22259 168.707C7.52636 167.044 6.89169 165.285 6.3186 163.431C5.74551 161.576 5.49759 159.32 5.57485 156.663C4.79008 155.35 4.02261 154.116 3.27244 152.96C2.48767 151.647 1.70289 150.333 0.918118 149.02C-0.323861 141.867 -0.30578 135.18 0.972361 128.96C2.21589 122.583 4.13272 116.635 6.72283 111.118C9.27834 105.444 12.2532 100.172 15.6474 95.3039C19.007 90.2782 22.2434 85.4446 25.3567 80.8028C26.3186 81.4173 26.9054 81.4538 27.117 80.9125C27.4519 80.1791 28.3638 79.8145 29.8529 79.8185C29.803 78.8394 30.0167 77.5551 30.4939 75.9655C30.9712 74.376 31.6409 72.9093 32.5029 71.5656C33.4881 70.0298 34.6041 68.713 35.8509 67.615C37.0976 66.517 38.3694 65.9086 39.666 65.7897C40.586 62.4532 42.3813 59.3376 45.0519 56.4428C47.8457 53.3561 50.6568 50.3481 53.4852 47.4188C56.3135 44.4895 58.7745 41.3932 60.868 38.1297C62.9615 34.8663 63.8911 31.1977 63.6569 27.1239L68.3896 26.0877C65.8735 23.6685 64.3656 20.946 63.8657 17.9204C63.3313 14.7373 63.724 12.0112 65.044 9.74215C66.4872 7.28113 68.7345 5.46909 71.7858 4.30604C74.8371 3.14299 78.6386 3.13575 83.1903 4.28431C84.9949 4.21924 86.1088 3.64535 86.5322 2.56263C86.9556 1.47991 87.8426 0.6257 89.1932 0C97.1423 1.55979 104.458 4.00069 111.141 7.3227C117.824 10.6447 124.094 14.7173 129.949 19.5405C129.738 20.0819 129.43 20.5618 129.026 20.9803C128.745 21.2068 128.481 21.512 128.235 21.8959C127.954 22.1224 127.769 22.4104 127.681 22.7598C127.75 23.0746 128.152 23.3991 128.887 23.7333C135.739 29.3283 142.143 35.5166 148.098 42.298C154.019 48.922 159.728 56.0873 165.226 63.794C167.433 70.0759 169.089 76.4786 170.193 83.0022C171.261 89.3684 171.865 96.249 172.002 103.644C171.329 106.597 170.384 109.444 169.168 112.185C168.075 114.734 166.824 117.318 165.415 119.937C163.972 122.398 162.546 124.937 161.138 127.556C159.695 130.017 158.444 132.601 157.385 135.308L163.485 143.872C163.604 145.166 164.152 146.531 165.129 147.968C166.072 149.246 167.032 150.604 168.009 152.04C168.951 153.319 169.736 154.632 170.363 155.98C171.148 157.293 171.407 158.473 171.142 159.522C171.823 160.363 172.917 160.453 174.426 159.793C173.864 160.246 173.529 160.979 173.421 161.993C173.471 162.972 174.329 163.114 175.995 162.419C176.061 164.22 175.783 166.343 175.164 168.789C174.544 171.235 173.574 173.592 172.254 175.861C170.969 178.288 169.202 180.407 166.955 182.219C164.9 184.154 162.374 185.449 159.376 186.106C155.875 185.222 153.005 184.201 150.766 183.041C148.684 181.846 146.139 180.424 143.131 178.772L129.858 160.145C119.484 167.861 108.113 174.806 95.7462 180.978C83.3444 186.994 69.8943 192.001 55.3958 196C47.0233 195.523 39.1877 194.103 31.8889 191.741C24.5902 189.379 18.2323 185.656 12.8154 180.571ZM59.9253 104.916C54.23 112.103 49.3733 120.096 45.3553 128.896C41.4951 137.661 38.816 146.911 37.3182 156.644C38.911 157.12 40.7502 157.213 42.8357 156.921C44.9212 156.629 46.8835 156.53 48.7227 156.622C57.1611 152.135 65.8708 147.753 74.8518 143.477C83.9559 139.008 92.5445 134.075 100.618 128.678C96.02 125.064 91.6148 121.574 87.402 118.206C83.3469 114.803 79.9229 111.263 77.1299 107.584C77.3955 106.536 77.5476 105.348 77.5863 104.019C77.7827 102.656 78.0579 101.276 78.4121 99.8783C78.7662 98.4807 79.3916 97.1887 80.2883 96.0024C81.1849 94.8161 82.5798 94.0157 84.4729 93.6012C87.5548 94.0815 91.0062 93.9859 94.827 93.3144C98.8056 92.6084 102.442 92.2248 105.735 92.1638C109.375 93.677 112.741 95.8276 115.835 98.6155C118.893 101.246 121.952 103.876 125.01 106.507C127.789 102.598 130.025 98.4789 131.718 94.148C133.377 89.6597 134.301 84.8372 134.49 79.6807C132.99 77.3691 131.184 74.7944 129.072 71.9567C126.96 69.119 124.628 66.4118 122.078 63.8352C119.685 61.224 117.045 58.9967 114.16 57.1534C111.432 55.2755 108.641 54.2366 105.786 54.0366C104.455 53.998 103.639 54.4241 103.339 55.3149C103.161 56.0137 102.232 56.2996 100.551 56.1727C93.3817 64.1775 86.1953 72.1035 78.9915 79.9508C71.7531 87.6407 65.3978 95.9623 59.9253 104.916Z" fill="#333333"/>
<path d="M179.424 118.622C179.897 118.942 180.334 119.182 180.736 119.344C181.138 119.505 181.538 119.649 181.936 119.774C182.298 119.903 182.651 120.042 182.997 120.19C183.339 120.303 183.716 120.494 184.129 120.765C184.518 121.349 184.9 121.861 185.274 122.3C185.665 122.719 186.068 123.165 186.482 123.636C186.92 124.527 187.286 125.343 187.581 126.083C187.875 126.824 188.149 127.447 188.402 127.953C188.42 128.135 188.466 128.322 188.541 128.516C188.612 128.674 188.684 128.85 188.759 129.044C188.786 129.133 188.835 129.257 188.906 129.415C188.977 129.572 189.016 129.688 189.023 129.76L188.322 130.188L188.974 130.92L188.75 131.437L188.865 132.03C189.214 132.948 189.447 133.805 189.563 134.599C189.659 135.378 189.666 136.183 189.584 137.016C189.499 137.813 189.328 138.673 189.071 139.596C188.831 140.5 188.548 141.518 188.22 142.65C187.902 142.956 187.636 143.239 187.424 143.499C187.207 143.722 186.999 143.935 186.799 144.138C186.488 144.517 186.073 144.962 185.555 145.472C185.346 145.401 185.163 145.401 185.004 145.472C184.846 145.542 184.726 145.628 184.644 145.727C184.206 145.936 183.763 146.008 183.316 145.942C182.865 145.841 182.394 145.723 181.903 145.588C181.602 145.508 181.32 145.445 181.058 145.398C180.776 145.334 180.486 145.281 180.188 145.237L180.455 144.606L179.195 144.676C179.102 144.667 179.012 144.676 178.922 144.704C178.813 144.714 178.712 144.715 178.62 144.706L178.115 144.344C176.686 143.277 175.402 142.278 174.262 141.347C173.118 140.38 172.219 139.379 171.565 138.345L171.235 138.076C170.844 137.656 170.533 137.303 170.302 137.014C170.051 136.709 169.812 136.431 169.585 136.178C169.194 135.759 168.858 135.335 168.576 134.905C168.745 134.576 168.807 134.277 168.762 134.007C168.696 133.72 168.634 133.469 168.576 133.255C168.785 132.96 168.981 132.803 169.163 132.785C169.344 132.766 169.586 132.797 169.888 132.877C170.15 132.924 170.448 132.968 170.783 133.008C171.134 133.028 171.492 132.937 171.857 132.736C172.05 132.827 172.261 132.916 172.49 133.003C172.715 133.054 172.961 133.121 173.226 133.204C173.697 133.322 174.172 133.476 174.65 133.667C175.124 133.821 175.54 134.027 175.896 134.285C176.113 134.795 176.422 135.314 176.823 135.842C177.241 136.35 177.694 136.836 178.181 137.301C178.665 137.729 179.163 138.119 179.676 138.471C180.185 138.787 180.649 139.016 181.067 139.157L181.604 139.296L181.961 138.738C182.292 138.009 182.564 137.331 182.777 136.705C182.986 136.043 183.133 135.396 183.216 134.765C183.3 134.133 183.327 133.489 183.298 132.832C183.249 132.159 183.167 131.425 183.05 130.631C182.934 129.836 182.709 129.052 182.374 128.279C182.036 127.47 181.629 126.704 181.153 125.982C180.693 125.24 180.194 124.566 179.656 123.96C179.114 123.317 178.579 122.747 178.052 122.25C178.21 121.813 178.109 121.447 177.749 121.153L177.37 120.944C177.185 120.926 177.045 120.811 176.95 120.601C176.669 120.171 176.608 119.655 176.768 119.052C177.23 118.896 177.679 118.796 178.115 118.753C178.568 118.69 179.004 118.646 179.424 118.622Z" fill="#EB5757"/>
<path d="M179.424 118.622C179.897 118.942 180.334 119.182 180.736 119.344C181.138 119.505 181.538 119.649 181.936 119.774C182.298 119.903 182.651 120.042 182.997 120.19C183.339 120.303 183.716 120.494 184.129 120.765C184.518 121.349 184.9 121.861 185.274 122.3C185.665 122.719 186.068 123.165 186.482 123.636C186.92 124.527 187.286 125.343 187.581 126.083C187.875 126.824 188.149 127.447 188.402 127.953C188.42 128.135 188.466 128.322 188.541 128.516C188.612 128.674 188.684 128.85 188.759 129.044C188.786 129.133 188.835 129.257 188.906 129.415C188.977 129.572 189.016 129.688 189.023 129.76L188.322 130.188L188.974 130.92L188.75 131.437L188.865 132.03C189.214 132.948 189.447 133.805 189.563 134.599C189.659 135.378 189.666 136.183 189.584 137.016C189.499 137.813 189.328 138.673 189.071 139.596C188.831 140.5 188.548 141.518 188.22 142.65C187.902 142.956 187.636 143.239 187.424 143.499C187.207 143.722 186.999 143.935 186.799 144.138C186.488 144.517 186.073 144.962 185.555 145.472C185.346 145.401 185.163 145.401 185.004 145.472C184.846 145.542 184.726 145.628 184.644 145.727C184.206 145.936 183.763 146.008 183.316 145.942C182.865 145.841 182.394 145.723 181.903 145.588C181.602 145.508 181.32 145.445 181.058 145.398C180.776 145.334 180.486 145.281 180.188 145.237L180.455 144.606L179.195 144.676C179.102 144.667 179.012 144.676 178.922 144.704C178.813 144.714 178.712 144.715 178.62 144.706L178.115 144.344C176.686 143.277 175.402 142.278 174.262 141.347C173.118 140.38 172.219 139.379 171.565 138.345L171.235 138.076C170.844 137.656 170.533 137.303 170.302 137.014C170.051 136.709 169.812 136.431 169.585 136.178C169.194 135.759 168.858 135.335 168.576 134.905C168.745 134.576 168.807 134.277 168.762 134.007C168.696 133.72 168.634 133.469 168.576 133.255C168.785 132.96 168.981 132.803 169.163 132.785C169.344 132.766 169.586 132.797 169.888 132.877C170.15 132.924 170.448 132.968 170.783 133.008C171.134 133.028 171.492 132.937 171.857 132.736C172.05 132.827 172.261 132.916 172.49 133.003C172.715 133.054 172.961 133.121 173.226 133.204C173.697 133.322 174.172 133.476 174.65 133.667C175.124 133.821 175.54 134.027 175.896 134.285C176.113 134.795 176.422 135.314 176.823 135.842C177.241 136.35 177.694 136.836 178.181 137.301C178.665 137.729 179.163 138.119 179.676 138.471C180.185 138.787 180.649 139.016 181.067 139.157L181.604 139.296L181.961 138.738C182.292 138.009 182.564 137.331 182.777 136.705C182.986 136.043 183.133 135.396 183.216 134.765C183.3 134.133 183.327 133.489 183.298 132.832C183.249 132.159 183.167 131.425 183.05 130.631C182.934 129.836 182.709 129.052 182.374 128.279C182.036 127.47 181.629 126.704 181.153 125.982C180.693 125.24 180.194 124.566 179.656 123.96C179.114 123.317 178.579 122.747 178.052 122.25C178.21 121.813 178.109 121.447 177.749 121.153L177.37 120.944C177.185 120.926 177.045 120.811 176.95 120.601C176.669 120.171 176.608 119.655 176.768 119.052C177.23 118.896 177.679 118.796 178.115 118.753C178.568 118.69 179.004 118.646 179.424 118.622Z" fill="#333333"/>
<path d="M199.819 124.231C200.5 124.621 200.938 125.045 201.13 125.502C201.339 125.94 201.393 126.383 201.291 126.833C201.226 127.279 201.039 127.71 200.732 128.126C200.425 128.541 200.094 128.904 199.739 129.214C199.295 129.185 198.798 129.079 198.247 128.896C197.696 128.712 197.144 128.511 196.589 128.291C196.015 128.055 195.458 127.818 194.92 127.578C194.398 127.319 193.935 127.09 193.529 126.892C193.371 126.596 193.15 126.316 192.867 126.051C192.579 125.75 192.276 125.469 191.956 125.207C191.652 124.926 191.34 124.655 191.02 124.393C190.697 124.096 190.401 123.805 190.134 123.52C189.409 122.694 188.772 121.841 188.225 120.961C187.694 120.061 187.084 119.197 186.395 118.367C186.248 118.18 186.062 118.062 185.836 118.011C185.627 117.94 185.469 117.827 185.362 117.673C185.298 117.588 185.297 117.487 185.359 117.371C185.401 117.239 185.38 117.122 185.296 117.02C185.126 116.781 184.954 116.624 184.781 116.549C184.625 116.455 184.487 116.276 184.369 116.013C184.291 115.783 184.159 115.475 183.974 115.09C183.785 114.669 183.504 114.34 183.131 114.102C183.159 113.825 183.158 113.541 183.129 113.25C183.1 112.96 183.09 112.686 183.101 112.429C183.109 112.135 183.144 111.847 183.208 111.566C183.288 111.265 183.451 110.964 183.696 110.665C184.027 110.669 184.329 110.748 184.602 110.905C184.891 111.041 185.172 111.187 185.444 111.343C185.733 111.479 186.029 111.587 186.331 111.667C186.612 111.73 186.912 111.691 187.228 111.55C187.388 111.681 187.588 111.844 187.828 112.04C188.068 112.236 188.316 112.422 188.572 112.598C188.809 112.757 189.051 112.889 189.301 112.993C189.546 113.06 189.764 113.038 189.955 112.927C190.62 114.07 191.292 115.185 191.97 116.272C192.665 117.339 193.41 118.364 194.206 119.348C194.983 120.315 195.826 121.221 196.737 122.064C197.664 122.888 198.691 123.61 199.819 124.231Z" fill="#EB5757"/>
<path d="M199.819 124.231C200.5 124.621 200.938 125.045 201.13 125.502C201.339 125.94 201.393 126.383 201.291 126.833C201.226 127.279 201.039 127.71 200.732 128.126C200.425 128.541 200.094 128.904 199.739 129.214C199.295 129.185 198.798 129.079 198.247 128.896C197.696 128.712 197.144 128.511 196.589 128.291C196.015 128.055 195.458 127.818 194.92 127.578C194.398 127.319 193.935 127.09 193.529 126.892C193.371 126.596 193.15 126.316 192.867 126.051C192.579 125.75 192.276 125.469 191.956 125.207C191.652 124.926 191.34 124.655 191.02 124.393C190.697 124.096 190.401 123.805 190.134 123.52C189.409 122.694 188.772 121.841 188.225 120.961C187.694 120.061 187.084 119.197 186.395 118.367C186.248 118.18 186.062 118.062 185.836 118.011C185.627 117.94 185.469 117.827 185.362 117.673C185.298 117.588 185.297 117.487 185.359 117.371C185.401 117.239 185.38 117.122 185.296 117.02C185.126 116.781 184.954 116.624 184.781 116.549C184.625 116.455 184.487 116.276 184.369 116.013C184.291 115.783 184.159 115.475 183.974 115.09C183.785 114.669 183.504 114.34 183.131 114.102C183.159 113.825 183.158 113.541 183.129 113.25C183.1 112.96 183.09 112.686 183.101 112.429C183.109 112.135 183.144 111.847 183.208 111.566C183.288 111.265 183.451 110.964 183.696 110.665C184.027 110.669 184.329 110.748 184.602 110.905C184.891 111.041 185.172 111.187 185.444 111.343C185.733 111.479 186.029 111.587 186.331 111.667C186.612 111.73 186.912 111.691 187.228 111.55C187.388 111.681 187.588 111.844 187.828 112.04C188.068 112.236 188.316 112.422 188.572 112.598C188.809 112.757 189.051 112.889 189.301 112.993C189.546 113.06 189.764 113.038 189.955 112.927C190.62 114.07 191.292 115.185 191.97 116.272C192.665 117.339 193.41 118.364 194.206 119.348C194.983 120.315 195.826 121.221 196.737 122.064C197.664 122.888 198.691 123.61 199.819 124.231Z" fill="#333333"/>
<path d="M195.422 95.9995C196.21 95.243 196.994 94.6334 197.774 94.1708C198.554 93.7082 199.332 93.4107 200.108 93.2784C200.87 93.3674 201.656 93.509 202.465 93.7032C203.29 93.8775 204.08 94.1561 204.835 94.539C205.585 94.8856 206.283 95.3384 206.926 95.8973C207.586 96.4362 208.142 97.123 208.592 97.9577C208.838 99.1244 208.847 100.315 208.619 101.528C208.388 102.706 208.02 103.888 207.514 105.075C207.009 106.261 206.431 107.455 205.779 108.656C205.145 109.837 204.526 110.998 203.925 112.139C204.401 112.495 204.891 112.895 205.394 113.34C205.894 113.748 206.363 114.214 206.802 114.739C207.236 115.227 207.62 115.757 207.952 116.328C208.285 116.9 208.529 117.499 208.683 118.125C208.405 118.464 208.158 118.846 207.944 119.27C207.749 119.711 207.567 120.096 207.398 120.424C207.204 120.499 207.017 120.563 206.839 120.618C206.697 120.668 206.535 120.785 206.351 120.969C206.184 120.765 205.943 120.652 205.628 120.628C205.294 120.588 204.959 120.548 204.625 120.508C204.29 120.469 203.998 120.397 203.749 120.293C203.516 120.17 203.408 119.915 203.425 119.529C203.17 119.554 202.933 119.477 202.713 119.297C202.587 118.961 202.356 118.572 202.018 118.13C201.696 117.667 201.359 117.242 201.009 116.856C200.654 116.433 200.29 116.103 199.918 115.865C199.545 115.627 199.131 115.623 198.677 115.851C198.653 115.799 198.666 115.742 198.715 115.682C198.764 115.623 198.803 115.555 198.832 115.478C198.581 115.54 198.33 115.501 198.077 115.361C197.84 115.202 197.593 115.116 197.335 115.105C197.268 114.984 197.202 114.88 197.139 114.795C197.075 114.71 197.102 114.615 197.221 114.512C196.811 114.278 196.471 114 196.201 113.679C195.946 113.338 195.736 112.983 195.571 112.615C195.385 112.23 195.234 111.824 195.118 111.396C195.002 110.967 194.877 110.549 194.745 110.141C194.839 109.985 194.925 109.921 195.001 109.95C195.094 109.959 195.141 109.881 195.143 109.716C195.156 109.294 195.093 108.942 194.955 108.663C194.817 108.384 194.608 108.13 194.328 107.901C194.022 107.418 193.741 106.906 193.485 106.363C193.209 105.804 192.989 105.258 192.825 104.725C192.662 104.191 192.554 103.67 192.503 103.162C192.469 102.634 192.513 102.154 192.635 101.72C192.631 101.317 192.696 100.871 192.831 100.381C192.946 99.8748 193.135 99.3795 193.398 98.8951C193.642 98.3943 193.936 97.9344 194.28 97.5153C194.62 97.0599 194.987 96.6935 195.381 96.4159C195.503 96.3488 195.524 96.2825 195.444 96.2172C195.381 96.1319 195.373 96.0594 195.422 95.9995ZM201.585 103.082C201.775 102.403 202.038 101.735 202.377 101.079C202.711 100.386 202.854 99.7025 202.805 99.0294C202.389 99.0892 201.912 99.2833 201.376 99.6117C200.819 99.9237 200.3 100.333 199.818 100.839C199.337 101.345 198.936 101.935 198.618 102.608C198.296 103.245 198.152 103.91 198.184 104.603C198.446 105.016 198.654 105.353 198.809 105.613C198.943 105.856 199.103 106.17 199.289 106.554C199.421 106.596 199.55 106.601 199.676 106.571C199.798 106.504 199.925 106.491 200.058 106.533C200.194 105.878 200.441 105.312 200.797 104.837C201.15 104.325 201.413 103.74 201.585 103.082Z" fill="#EB5757"/>
<path d="M195.422 95.9995C196.21 95.243 196.994 94.6334 197.774 94.1708C198.554 93.7082 199.332 93.4107 200.108 93.2784C200.87 93.3674 201.656 93.509 202.465 93.7032C203.29 93.8775 204.08 94.1561 204.835 94.539C205.585 94.8856 206.283 95.3384 206.926 95.8973C207.586 96.4362 208.142 97.123 208.592 97.9577C208.838 99.1244 208.847 100.315 208.619 101.528C208.388 102.706 208.02 103.888 207.514 105.075C207.009 106.261 206.431 107.455 205.779 108.656C205.145 109.837 204.526 110.998 203.925 112.139C204.401 112.495 204.891 112.895 205.394 113.34C205.894 113.748 206.363 114.214 206.802 114.739C207.236 115.227 207.62 115.757 207.952 116.328C208.285 116.9 208.529 117.499 208.683 118.125C208.405 118.464 208.158 118.846 207.944 119.27C207.749 119.711 207.567 120.096 207.398 120.424C207.204 120.499 207.017 120.563 206.839 120.618C206.697 120.668 206.535 120.785 206.351 120.969C206.184 120.765 205.943 120.652 205.628 120.628C205.294 120.588 204.959 120.548 204.625 120.508C204.29 120.469 203.998 120.397 203.749 120.293C203.516 120.17 203.408 119.915 203.425 119.529C203.17 119.554 202.933 119.477 202.713 119.297C202.587 118.961 202.356 118.572 202.018 118.13C201.696 117.667 201.359 117.242 201.009 116.856C200.654 116.433 200.29 116.103 199.918 115.865C199.545 115.627 199.131 115.623 198.677 115.851C198.653 115.799 198.666 115.742 198.715 115.682C198.764 115.623 198.803 115.555 198.832 115.478C198.581 115.54 198.33 115.501 198.077 115.361C197.84 115.202 197.593 115.116 197.335 115.105C197.268 114.984 197.202 114.88 197.139 114.795C197.075 114.71 197.102 114.615 197.221 114.512C196.811 114.278 196.471 114 196.201 113.679C195.946 113.338 195.736 112.983 195.571 112.615C195.385 112.23 195.234 111.824 195.118 111.396C195.002 110.967 194.877 110.549 194.745 110.141C194.839 109.985 194.925 109.921 195.001 109.95C195.094 109.959 195.141 109.881 195.143 109.716C195.156 109.294 195.093 108.942 194.955 108.663C194.817 108.384 194.608 108.13 194.328 107.901C194.022 107.418 193.741 106.906 193.485 106.363C193.209 105.804 192.989 105.258 192.825 104.725C192.662 104.191 192.554 103.67 192.503 103.162C192.469 102.634 192.513 102.154 192.635 101.72C192.631 101.317 192.696 100.871 192.831 100.381C192.946 99.8748 193.135 99.3795 193.398 98.8951C193.642 98.3943 193.936 97.9344 194.28 97.5153C194.62 97.0599 194.987 96.6935 195.381 96.4159C195.503 96.3488 195.524 96.2825 195.444 96.2172C195.381 96.1319 195.373 96.0594 195.422 95.9995ZM201.585 103.082C201.775 102.403 202.038 101.735 202.377 101.079C202.711 100.386 202.854 99.7025 202.805 99.0294C202.389 99.0892 201.912 99.2833 201.376 99.6117C200.819 99.9237 200.3 100.333 199.818 100.839C199.337 101.345 198.936 101.935 198.618 102.608C198.296 103.245 198.152 103.91 198.184 104.603C198.446 105.016 198.654 105.353 198.809 105.613C198.943 105.856 199.103 106.17 199.289 106.554C199.421 106.596 199.55 106.601 199.676 106.571C199.798 106.504 199.925 106.491 200.058 106.533C200.194 105.878 200.441 105.312 200.797 104.837C201.15 104.325 201.413 103.74 201.585 103.082Z" fill="#333333"/>
<path d="M224.1 98.226C223.822 98.9318 223.503 99.6875 223.143 100.493C222.782 101.299 222.332 102.031 221.792 102.689C220.974 103.687 220.077 104.271 219.103 104.442C218.801 104.362 218.577 104.329 218.432 104.344C218.303 104.338 218.174 104.333 218.045 104.327C217.912 104.285 217.757 104.209 217.581 104.099C217.105 104.109 216.629 104.038 216.155 103.883C215.66 103.713 215.198 103.502 214.769 103.252C214.337 102.965 213.928 102.648 213.545 102.302C213.178 101.935 212.855 101.555 212.577 101.161C212.53 101.056 212.466 100.971 212.386 100.906C212.322 100.82 212.249 100.727 212.165 100.625C211.91 100.284 211.666 99.9511 211.431 99.6263C211.213 99.2816 211.06 98.9395 210.971 98.6002C210.725 98.5331 210.525 98.3698 210.371 98.1103C210.216 97.8508 210.09 97.5977 209.992 97.3509C209.461 96.4509 209.009 95.6988 208.636 95.0946C208.26 94.4541 207.894 93.8217 207.538 93.1975C206.916 92.1233 206.288 91.0773 205.653 90.0593C205.019 89.0414 204.29 87.9962 203.466 86.9238C203.497 86.6825 203.525 86.5056 203.551 86.3931C203.609 86.2407 203.661 86.1164 203.706 86.0202C204.181 85.808 204.705 85.5359 205.277 85.2039C205.83 84.8556 206.237 84.5218 206.499 84.2025C206.73 84.1245 206.892 84.0901 206.985 84.0991C207.058 84.0919 207.13 84.0846 207.203 84.0774C207.643 84.0702 208.068 84.1011 208.479 84.1701C208.87 84.2227 209.261 84.4586 209.652 84.8778C209.734 85.1445 209.75 85.3078 209.701 85.3677C210.019 85.7941 210.269 86.1815 210.451 86.5299C210.649 86.8583 210.839 87.1967 211.021 87.5451C211.206 87.9298 211.4 88.3045 211.602 88.6692C211.803 89.0339 212.092 89.4358 212.466 89.8749C212.501 90.0364 212.542 90.1698 212.589 90.275C212.652 90.3603 212.718 90.4637 212.785 90.5853C212.852 90.7069 212.921 90.8466 212.992 91.0045C213.06 91.126 213.092 91.2694 213.091 91.4345C213.561 91.919 213.9 92.3617 214.105 92.7627C214.327 93.1438 214.54 93.5348 214.746 93.9358C215.129 94.6489 215.529 95.3421 215.946 96.0152C216.378 96.6685 216.948 97.3172 217.655 97.9614C217.697 97.8289 217.751 97.7228 217.816 97.643C217.898 97.5432 217.972 97.4534 218.037 97.3735C218.185 97.1939 218.386 97.0089 218.643 96.8184C218.814 95.9584 219.156 95.1546 219.669 94.4072C220.198 93.6397 220.739 92.8986 221.292 92.1838C221.521 91.9044 221.75 91.625 221.979 91.3456C222.208 91.0662 222.401 90.7904 222.557 90.5183C222.804 90.4203 222.954 90.3596 223.007 90.336C223.056 90.2761 223.122 90.1963 223.204 90.0965C223.318 89.9568 223.426 89.8452 223.528 89.7618C223.945 89.702 224.293 89.6031 224.573 89.4653C224.853 89.3274 225.131 89.1714 225.407 88.9972C225.667 88.843 225.929 88.707 226.193 88.5891C226.453 88.4349 226.745 88.3233 227.068 88.2544L228.53 89.0983C228.825 89.1055 228.994 89.1437 229.037 89.2126C229.197 89.3433 229.285 89.4812 229.299 89.6263L229.678 89.8359C229.493 90.1843 229.391 90.451 229.373 90.636C229.371 90.8011 229.379 90.9744 229.397 91.1559C229.286 91.3318 229.198 91.4598 229.133 91.5396C229.084 91.5995 229.034 91.6593 228.985 91.7192C228.756 91.9986 228.528 92.3787 228.301 92.8595C227.679 93.2513 227.131 93.7366 226.656 94.3154C226.476 94.5349 226.298 94.7726 226.121 95.0284C225.945 95.2842 225.769 95.54 225.592 95.7958C225.436 96.0679 225.261 96.3419 225.068 96.6177C224.892 96.8735 224.697 97.1311 224.485 97.3905L224.1 98.226Z" fill="#EB5757"/>
<path d="M224.1 98.226C223.822 98.9318 223.503 99.6875 223.143 100.493C222.782 101.299 222.332 102.031 221.792 102.689C220.974 103.687 220.077 104.271 219.103 104.442C218.801 104.362 218.577 104.329 218.432 104.344C218.303 104.338 218.174 104.333 218.045 104.327C217.912 104.285 217.757 104.209 217.581 104.099C217.105 104.109 216.629 104.038 216.155 103.883C215.66 103.713 215.198 103.502 214.769 103.252C214.337 102.965 213.928 102.648 213.545 102.302C213.178 101.935 212.855 101.555 212.577 101.161C212.53 101.056 212.466 100.971 212.386 100.906C212.322 100.82 212.249 100.727 212.165 100.625C211.91 100.284 211.666 99.9511 211.431 99.6263C211.213 99.2816 211.06 98.9395 210.971 98.6002C210.725 98.5331 210.525 98.3698 210.371 98.1103C210.216 97.8508 210.09 97.5977 209.992 97.3509C209.461 96.4509 209.009 95.6988 208.636 95.0946C208.26 94.4541 207.894 93.8217 207.538 93.1975C206.916 92.1233 206.288 91.0773 205.653 90.0593C205.019 89.0414 204.29 87.9962 203.466 86.9238C203.497 86.6825 203.525 86.5056 203.551 86.3931C203.609 86.2407 203.661 86.1164 203.706 86.0202C204.181 85.808 204.705 85.5359 205.277 85.2039C205.83 84.8556 206.237 84.5218 206.499 84.2025C206.73 84.1245 206.892 84.0901 206.985 84.0991C207.058 84.0919 207.13 84.0846 207.203 84.0774C207.643 84.0702 208.068 84.1011 208.479 84.1701C208.87 84.2227 209.261 84.4586 209.652 84.8778C209.734 85.1445 209.75 85.3078 209.701 85.3677C210.019 85.7941 210.269 86.1815 210.451 86.5299C210.649 86.8583 210.839 87.1967 211.021 87.5451C211.206 87.9298 211.4 88.3045 211.602 88.6692C211.803 89.0339 212.092 89.4358 212.466 89.8749C212.501 90.0364 212.542 90.1698 212.589 90.275C212.652 90.3603 212.718 90.4637 212.785 90.5853C212.852 90.7069 212.921 90.8466 212.992 91.0045C213.06 91.126 213.092 91.2694 213.091 91.4345C213.561 91.919 213.9 92.3617 214.105 92.7627C214.327 93.1438 214.54 93.5348 214.746 93.9358C215.129 94.6489 215.529 95.3421 215.946 96.0152C216.378 96.6685 216.948 97.3172 217.655 97.9614C217.697 97.8289 217.751 97.7228 217.816 97.643C217.898 97.5432 217.972 97.4534 218.037 97.3735C218.185 97.1939 218.386 97.0089 218.643 96.8184C218.814 95.9584 219.156 95.1546 219.669 94.4072C220.198 93.6397 220.739 92.8986 221.292 92.1838C221.521 91.9044 221.75 91.625 221.979 91.3456C222.208 91.0662 222.401 90.7904 222.557 90.5183C222.804 90.4203 222.954 90.3596 223.007 90.336C223.056 90.2761 223.122 90.1963 223.204 90.0965C223.318 89.9568 223.426 89.8452 223.528 89.7618C223.945 89.702 224.293 89.6031 224.573 89.4653C224.853 89.3274 225.131 89.1714 225.407 88.9972C225.667 88.843 225.929 88.707 226.193 88.5891C226.453 88.4349 226.745 88.3233 227.068 88.2544L228.53 89.0983C228.825 89.1055 228.994 89.1437 229.037 89.2126C229.197 89.3433 229.285 89.4812 229.299 89.6263L229.678 89.8359C229.493 90.1843 229.391 90.451 229.373 90.636C229.371 90.8011 229.379 90.9744 229.397 91.1559C229.286 91.3318 229.198 91.4598 229.133 91.5396C229.084 91.5995 229.034 91.6593 228.985 91.7192C228.756 91.9986 228.528 92.3787 228.301 92.8595C227.679 93.2513 227.131 93.7366 226.656 94.3154C226.476 94.5349 226.298 94.7726 226.121 95.0284C225.945 95.2842 225.769 95.54 225.592 95.7958C225.436 96.0679 225.261 96.3419 225.068 96.6177C224.892 96.8735 224.697 97.1311 224.485 97.3905L224.1 98.226Z" fill="#333333"/>
<path d="M228.162 59.558C228.319 59.6523 228.429 59.7421 228.492 59.8274C228.552 59.8764 228.604 59.9354 228.648 60.0043C228.708 60.0533 228.778 60.1105 228.858 60.1758C228.918 60.2248 229.034 60.2865 229.207 60.3609C229.543 61.3353 229.612 62.208 229.414 62.9791C229.212 63.714 228.909 64.4497 228.505 65.1863C228.082 65.9065 227.652 66.6549 227.215 67.4314C226.795 68.188 226.515 69.0589 226.375 70.0441C226.062 70.2219 225.866 70.4614 225.786 70.7625C225.722 71.0438 225.507 71.3676 225.139 71.7341C225.161 71.9518 225.128 72.175 225.041 72.4036C224.934 72.6159 224.836 72.8363 224.749 73.0649C224.994 73.1321 225.209 73.2573 225.393 73.4406C225.573 73.5875 225.747 73.6801 225.916 73.7182C226.549 73.0687 227.169 72.2922 227.777 71.3887C228.4 70.4652 229.038 69.5862 229.689 68.7517C229.805 68.8134 229.867 68.8805 229.874 68.9531C229.861 69.0093 229.903 69.0602 230 69.1055C230.214 69.0475 230.459 69.0139 230.733 69.0049C230.988 68.9795 231.242 68.9542 231.497 68.9288C231.751 68.9034 231.986 68.8617 232.201 68.8037C232.411 68.7093 232.589 68.5542 232.732 68.3383C232.958 68.3891 233.179 68.4862 233.395 68.6296C233.608 68.7367 233.781 68.9118 233.916 69.1549C233.874 69.6539 233.842 70.161 233.82 70.6763C233.779 71.1752 233.7 71.6778 233.586 72.184C233.487 72.6703 233.335 73.162 233.127 73.6591C232.916 74.1199 232.604 74.5817 232.192 75.0443C232.11 75.1441 232.044 75.2239 231.995 75.2838C231.963 75.3237 231.883 75.3591 231.758 75.3899C231.727 75.6312 231.569 75.8852 231.283 76.1519C231.014 76.3986 230.864 76.6426 230.833 76.8839C230.553 77.0218 230.292 77.2586 230.05 77.5942C229.805 77.8936 229.544 78.1303 229.268 78.3045C229.426 78.9667 229.638 79.6236 229.906 80.275C230.173 80.9264 230.495 81.5723 230.871 82.2128C231.527 81.616 232.026 81.0899 232.366 80.6345C232.722 80.1591 233.044 79.7056 233.331 79.2738C233.599 78.8256 233.884 78.3757 234.188 77.924C234.471 77.4559 234.885 76.9107 235.429 76.2884C235.536 75.7096 235.781 75.1263 236.163 74.5385C236.541 73.9144 236.838 73.3075 237.055 72.7178C237.246 72.6072 237.47 72.5573 237.728 72.5682C237.967 72.5628 238.197 72.5674 238.418 72.5819C238.637 72.5601 238.845 72.5302 239.043 72.4921C239.241 72.4541 239.404 72.3371 239.531 72.1411C239.677 72.1266 239.818 72.1584 239.954 72.2364C240.087 72.2782 240.211 72.3299 240.328 72.3916C240.444 72.4533 240.559 72.4968 240.671 72.5222C240.78 72.5114 240.874 72.4379 240.952 72.3018C241.367 73.1401 241.59 73.9058 241.623 74.5989C241.652 75.2558 241.552 75.9071 241.323 76.553C241.093 77.1989 240.775 77.872 240.368 78.5723C239.977 79.2527 239.549 80.0192 239.083 80.872C238.976 81.0842 238.843 81.2257 238.685 81.2965C238.547 81.3836 238.412 81.5069 238.281 81.6666C238.005 82.2072 237.645 82.8295 237.201 83.5335C236.757 84.2374 236.255 84.9105 235.695 85.5528C235.135 86.195 234.53 86.7501 233.879 87.2182C233.248 87.7026 232.587 87.9792 231.896 88.0481C231.625 88.0934 231.375 88.0725 231.146 87.9854C230.913 87.862 230.657 87.8692 230.377 88.0071C230.1 87.8147 229.778 87.6178 229.409 87.4164C229.039 87.215 228.66 87.0053 228.271 86.7876C227.862 86.5535 227.471 86.3176 227.099 86.0798C226.742 85.8222 226.449 85.5491 226.218 85.2606C225.967 84.9557 225.795 84.6155 225.702 84.2399C225.626 83.8444 225.423 83.5622 225.094 83.3934C225.156 83.2773 225.155 83.1766 225.092 83.0913C225.008 82.9897 225.033 82.8772 225.168 82.7538C224.906 82.3401 224.673 81.9328 224.467 81.5318C224.262 81.1308 224.066 80.7379 223.881 80.3533C223.712 79.9486 223.535 79.554 223.349 79.1693C223.16 78.7483 222.933 78.3129 222.668 77.8629C222.178 77.9299 221.727 77.9109 221.312 77.8056C220.894 77.664 220.51 77.5007 220.161 77.3156C219.792 77.1141 219.431 76.9027 219.079 76.6813C218.706 76.4436 218.309 76.2358 217.887 76.058C217.75 75.6134 217.707 75.1779 217.756 74.7516C217.801 74.2889 217.903 73.8389 218.062 73.4017C218.22 72.9644 218.423 72.5136 218.67 72.0491C218.917 71.5847 219.171 71.0921 219.431 70.5714C219.826 69.5608 220.207 68.689 220.574 67.956C220.958 67.2031 221.355 66.4946 221.766 65.8306C222.173 65.1303 222.607 64.4182 223.067 63.6943C223.527 62.9704 224.021 62.124 224.548 61.1552C224.876 61.1225 225.105 61.0264 225.236 60.8667C225.121 60.6399 225.145 60.5093 225.307 60.4748C225.465 60.4041 225.446 60.3052 225.249 60.1782C225.753 60.2563 226.248 60.2436 226.733 60.1402C227.215 60.0006 227.691 59.8065 228.162 59.558Z" fill="#EB5757"/>
<path d="M228.162 59.558C228.319 59.6523 228.429 59.7421 228.492 59.8274C228.552 59.8764 228.604 59.9354 228.648 60.0043C228.708 60.0533 228.778 60.1105 228.858 60.1758C228.918 60.2248 229.034 60.2865 229.207 60.3609C229.543 61.3353 229.612 62.208 229.414 62.9791C229.212 63.714 228.909 64.4497 228.505 65.1863C228.082 65.9065 227.652 66.6549 227.215 67.4314C226.795 68.188 226.515 69.0589 226.375 70.0441C226.062 70.2219 225.866 70.4614 225.786 70.7625C225.722 71.0438 225.507 71.3676 225.139 71.7341C225.161 71.9518 225.128 72.175 225.041 72.4036C224.934 72.6159 224.836 72.8363 224.749 73.0649C224.994 73.1321 225.209 73.2573 225.393 73.4406C225.573 73.5875 225.747 73.6801 225.916 73.7182C226.549 73.0687 227.169 72.2922 227.777 71.3887C228.4 70.4652 229.038 69.5862 229.689 68.7517C229.805 68.8134 229.867 68.8805 229.874 68.9531C229.861 69.0093 229.903 69.0602 230 69.1055C230.214 69.0475 230.459 69.0139 230.733 69.0049C230.988 68.9795 231.242 68.9542 231.497 68.9288C231.751 68.9034 231.986 68.8617 232.201 68.8037C232.411 68.7093 232.589 68.5542 232.732 68.3383C232.958 68.3891 233.179 68.4862 233.395 68.6296C233.608 68.7367 233.781 68.9118 233.916 69.1549C233.874 69.6539 233.842 70.161 233.82 70.6763C233.779 71.1752 233.7 71.6778 233.586 72.184C233.487 72.6703 233.335 73.162 233.127 73.6591C232.916 74.1199 232.604 74.5817 232.192 75.0443C232.11 75.1441 232.044 75.2239 231.995 75.2838C231.963 75.3237 231.883 75.3591 231.758 75.3899C231.727 75.6312 231.569 75.8852 231.283 76.1519C231.014 76.3986 230.864 76.6426 230.833 76.8839C230.553 77.0218 230.292 77.2586 230.05 77.5942C229.805 77.8936 229.544 78.1303 229.268 78.3045C229.426 78.9667 229.638 79.6236 229.906 80.275C230.173 80.9264 230.495 81.5723 230.871 82.2128C231.527 81.616 232.026 81.0899 232.366 80.6345C232.722 80.1591 233.044 79.7056 233.331 79.2738C233.599 78.8256 233.884 78.3757 234.188 77.924C234.471 77.4559 234.885 76.9107 235.429 76.2884C235.536 75.7096 235.781 75.1263 236.163 74.5385C236.541 73.9144 236.838 73.3075 237.055 72.7178C237.246 72.6072 237.47 72.5573 237.728 72.5682C237.967 72.5628 238.197 72.5674 238.418 72.5819C238.637 72.5601 238.845 72.5302 239.043 72.4921C239.241 72.4541 239.404 72.3371 239.531 72.1411C239.677 72.1266 239.818 72.1584 239.954 72.2364C240.087 72.2782 240.211 72.3299 240.328 72.3916C240.444 72.4533 240.559 72.4968 240.671 72.5222C240.78 72.5114 240.874 72.4379 240.952 72.3018C241.367 73.1401 241.59 73.9058 241.623 74.5989C241.652 75.2558 241.552 75.9071 241.323 76.553C241.093 77.1989 240.775 77.872 240.368 78.5723C239.977 79.2527 239.549 80.0192 239.083 80.872C238.976 81.0842 238.843 81.2257 238.685 81.2965C238.547 81.3836 238.412 81.5069 238.281 81.6666C238.005 82.2072 237.645 82.8295 237.201 83.5335C236.757 84.2374 236.255 84.9105 235.695 85.5528C235.135 86.195 234.53 86.7501 233.879 87.2182C233.248 87.7026 232.587 87.9792 231.896 88.0481C231.625 88.0934 231.375 88.0725 231.146 87.9854C230.913 87.862 230.657 87.8692 230.377 88.0071C230.1 87.8147 229.778 87.6178 229.409 87.4164C229.039 87.215 228.66 87.0053 228.271 86.7876C227.862 86.5535 227.471 86.3176 227.099 86.0798C226.742 85.8222 226.449 85.5491 226.218 85.2606C225.967 84.9557 225.795 84.6155 225.702 84.2399C225.626 83.8444 225.423 83.5622 225.094 83.3934C225.156 83.2773 225.155 83.1766 225.092 83.0913C225.008 82.9897 225.033 82.8772 225.168 82.7538C224.906 82.3401 224.673 81.9328 224.467 81.5318C224.262 81.1308 224.066 80.7379 223.881 80.3533C223.712 79.9486 223.535 79.554 223.349 79.1693C223.16 78.7483 222.933 78.3129 222.668 77.8629C222.178 77.9299 221.727 77.9109 221.312 77.8056C220.894 77.664 220.51 77.5007 220.161 77.3156C219.792 77.1141 219.431 76.9027 219.079 76.6813C218.706 76.4436 218.309 76.2358 217.887 76.058C217.75 75.6134 217.707 75.1779 217.756 74.7516C217.801 74.2889 217.903 73.8389 218.062 73.4017C218.22 72.9644 218.423 72.5136 218.67 72.0491C218.917 71.5847 219.171 71.0921 219.431 70.5714C219.826 69.5608 220.207 68.689 220.574 67.956C220.958 67.2031 221.355 66.4946 221.766 65.8306C222.173 65.1303 222.607 64.4182 223.067 63.6943C223.527 62.9704 224.021 62.124 224.548 61.1552C224.876 61.1225 225.105 61.0264 225.236 60.8667C225.121 60.6399 225.145 60.5093 225.307 60.4748C225.465 60.4041 225.446 60.3052 225.249 60.1782C225.753 60.2563 226.248 60.2436 226.733 60.1402C227.215 60.0006 227.691 59.8065 228.162 59.558Z" fill="#333333"/>
<path d="M245.049 67.0006C245.669 67.8734 246.115 68.5711 246.388 69.0936C246.657 69.5799 246.872 70.1723 247.034 70.8709C246.781 71.0977 246.664 71.3018 246.682 71.4832C246.701 71.6647 246.701 71.8479 246.682 72.033C246.575 72.2453 246.469 72.375 246.363 72.4221C246.258 72.4693 246.15 72.4983 246.041 72.5092C245.952 72.5364 245.837 72.5754 245.695 72.6262C245.589 72.6734 245.463 72.7867 245.316 72.9664C245.123 72.8756 244.932 72.803 244.743 72.7486C244.57 72.6742 244.414 72.7631 244.274 73.0152C244.147 72.8447 244.025 72.7285 243.909 72.6668C243.772 72.5888 243.648 72.5371 243.535 72.5117C243.419 72.45 243.312 72.3964 243.216 72.3511C243.099 72.2894 242.988 72.1814 242.88 72.0272C242.799 72.1269 242.663 72.1496 242.474 72.0951C242.285 72.0407 242.088 71.9962 241.882 71.9617C241.571 71.6079 241.28 71.2704 241.01 70.9492C240.739 70.628 240.496 70.3132 240.281 70.0047C240.083 69.6763 239.869 69.3678 239.638 69.0793C239.407 68.7908 239.093 68.5839 238.694 68.4587C238.82 68.4279 238.859 68.3598 238.812 68.2546C238.744 68.133 238.649 68.0051 238.525 67.8708C238.382 67.7202 238.24 67.5877 238.1 67.4734C237.94 67.3428 237.802 67.2466 237.685 67.1849C237.329 66.5607 236.93 65.9682 236.488 65.4076C236.043 64.8106 235.591 64.2417 235.133 63.701C234.691 63.1403 234.259 62.5877 233.838 62.0434C233.416 61.499 233.067 60.9474 232.791 60.3885C232.931 60.1363 233.157 59.9214 233.47 59.7436C233.779 59.5295 234.028 59.4497 234.217 59.5042C234.243 58.6587 234.139 57.8077 233.906 56.9513C233.654 56.0785 233.429 55.2121 233.233 54.3521C233.037 53.492 232.933 52.6411 232.922 51.7992C232.928 50.9373 233.21 50.0846 233.768 49.241C234.395 49.0868 235.065 48.9009 235.778 48.6832C236.487 48.4293 237.223 48.3468 237.985 48.4358C238.196 48.3415 238.392 48.2853 238.574 48.2671C238.752 48.2127 238.956 48.1465 239.187 48.0685L239.547 48.3625C239.964 48.3027 240.379 48.3254 240.794 48.4307C241.205 48.4996 241.629 48.6131 242.067 48.771C242.486 48.9126 242.914 49.0623 243.352 49.2202C243.77 49.3618 244.195 49.4752 244.626 49.5605C244.693 49.6821 244.766 49.7755 244.846 49.8409C244.906 49.8899 244.985 49.937 245.081 49.9824C245.194 50.0078 245.298 50.0432 245.395 50.0886C245.491 50.134 245.601 50.2238 245.725 50.3581C246.555 51.1365 247.028 52.0057 247.142 52.9655C247.273 53.9054 247.224 54.8815 246.995 55.8939C246.746 56.89 246.406 57.8952 245.975 58.9094C245.544 59.9236 245.198 60.8743 244.938 61.7615C245.018 61.8268 245.082 61.8295 245.132 61.7697C245.197 61.6898 245.272 61.7007 245.355 61.8024C246.048 61.5684 246.599 61.3852 247.008 61.2528C247.417 61.1204 247.78 60.9834 248.096 60.8419C248.429 60.6805 248.76 60.5009 249.089 60.3031C249.415 60.0691 249.85 59.7417 250.396 59.3208C250.941 58.8999 251.368 58.5824 251.677 58.3684C251.983 58.118 252.264 57.8976 252.52 57.7071C252.757 57.5003 252.993 57.2935 253.229 57.0866C253.462 56.8435 253.787 56.5088 254.203 56.0825C254.53 56.0499 254.873 56.0798 255.231 56.1724C255.586 56.2287 255.91 56.343 256.202 56.5154C256.475 56.6715 256.723 56.8575 256.947 57.0734C257.15 57.273 257.273 57.4899 257.315 57.7239C257.391 57.753 257.454 57.7375 257.503 57.6777C257.549 57.5815 257.614 57.5017 257.699 57.4382C257.681 57.6233 257.699 57.8047 257.754 57.9825C257.809 58.1603 257.863 58.3382 257.918 58.516C257.972 58.6938 257.998 58.8653 257.997 59.0304C258.015 59.2118 257.96 59.4005 257.833 59.5964C257.566 60.4111 256.937 61.1976 255.948 61.9559C254.979 62.7305 253.625 63.6076 251.887 64.5872C251.018 65.077 250.295 65.4698 249.718 65.7655C249.138 66.0249 248.609 66.2425 248.131 66.4185C247.649 66.5581 247.174 66.6697 246.705 66.7531C246.252 66.8165 245.7 66.899 245.049 67.0006ZM238.27 54.3172C238.41 54.798 238.496 55.2843 238.527 55.776C238.574 56.2478 238.631 56.7277 238.698 57.2158C238.762 57.6676 238.882 58.132 239.058 58.6093C239.214 59.0701 239.48 59.5201 239.854 59.9593C240.347 59.1954 240.755 58.3119 241.076 57.3085C241.378 56.2889 241.668 55.3255 241.944 54.4183C241.259 53.9918 240.579 53.8031 239.904 53.852C239.246 53.881 238.701 54.036 238.27 54.3172Z" fill="#EB5757"/>
<path d="M245.049 67.0006C245.669 67.8734 246.115 68.5711 246.388 69.0936C246.657 69.5799 246.872 70.1723 247.034 70.8709C246.781 71.0977 246.664 71.3018 246.682 71.4832C246.701 71.6647 246.701 71.8479 246.682 72.033C246.575 72.2453 246.469 72.375 246.363 72.4221C246.258 72.4693 246.15 72.4983 246.041 72.5092C245.952 72.5364 245.837 72.5754 245.695 72.6262C245.589 72.6734 245.463 72.7867 245.316 72.9664C245.123 72.8756 244.932 72.803 244.743 72.7486C244.57 72.6742 244.414 72.7631 244.274 73.0152C244.147 72.8447 244.025 72.7285 243.909 72.6668C243.772 72.5888 243.648 72.5371 243.535 72.5117C243.419 72.45 243.312 72.3964 243.216 72.3511C243.099 72.2894 242.988 72.1814 242.88 72.0272C242.799 72.1269 242.663 72.1496 242.474 72.0951C242.285 72.0407 242.088 71.9962 241.882 71.9617C241.571 71.6079 241.28 71.2704 241.01 70.9492C240.739 70.628 240.496 70.3132 240.281 70.0047C240.083 69.6763 239.869 69.3678 239.638 69.0793C239.407 68.7908 239.093 68.5839 238.694 68.4587C238.82 68.4279 238.859 68.3598 238.812 68.2546C238.744 68.133 238.649 68.0051 238.525 67.8708C238.382 67.7202 238.24 67.5877 238.1 67.4734C237.94 67.3428 237.802 67.2466 237.685 67.1849C237.329 66.5607 236.93 65.9682 236.488 65.4076C236.043 64.8106 235.591 64.2417 235.133 63.701C234.691 63.1403 234.259 62.5877 233.838 62.0434C233.416 61.499 233.067 60.9474 232.791 60.3885C232.931 60.1363 233.157 59.9214 233.47 59.7436C233.779 59.5295 234.028 59.4497 234.217 59.5042C234.243 58.6587 234.139 57.8077 233.906 56.9513C233.654 56.0785 233.429 55.2121 233.233 54.3521C233.037 53.492 232.933 52.6411 232.922 51.7992C232.928 50.9373 233.21 50.0846 233.768 49.241C234.395 49.0868 235.065 48.9009 235.778 48.6832C236.487 48.4293 237.223 48.3468 237.985 48.4358C238.196 48.3415 238.392 48.2853 238.574 48.2671C238.752 48.2127 238.956 48.1465 239.187 48.0685L239.547 48.3625C239.964 48.3027 240.379 48.3254 240.794 48.4307C241.205 48.4996 241.629 48.6131 242.067 48.771C242.486 48.9126 242.914 49.0623 243.352 49.2202C243.77 49.3618 244.195 49.4752 244.626 49.5605C244.693 49.6821 244.766 49.7755 244.846 49.8409C244.906 49.8899 244.985 49.937 245.081 49.9824C245.194 50.0078 245.298 50.0432 245.395 50.0886C245.491 50.134 245.601 50.2238 245.725 50.3581C246.555 51.1365 247.028 52.0057 247.142 52.9655C247.273 53.9054 247.224 54.8815 246.995 55.8939C246.746 56.89 246.406 57.8952 245.975 58.9094C245.544 59.9236 245.198 60.8743 244.938 61.7615C245.018 61.8268 245.082 61.8295 245.132 61.7697C245.197 61.6898 245.272 61.7007 245.355 61.8024C246.048 61.5684 246.599 61.3852 247.008 61.2528C247.417 61.1204 247.78 60.9834 248.096 60.8419C248.429 60.6805 248.76 60.5009 249.089 60.3031C249.415 60.0691 249.85 59.7417 250.396 59.3208C250.941 58.8999 251.368 58.5824 251.677 58.3684C251.983 58.118 252.264 57.8976 252.52 57.7071C252.757 57.5003 252.993 57.2935 253.229 57.0866C253.462 56.8435 253.787 56.5088 254.203 56.0825C254.53 56.0499 254.873 56.0798 255.231 56.1724C255.586 56.2287 255.91 56.343 256.202 56.5154C256.475 56.6715 256.723 56.8575 256.947 57.0734C257.15 57.273 257.273 57.4899 257.315 57.7239C257.391 57.753 257.454 57.7375 257.503 57.6777C257.549 57.5815 257.614 57.5017 257.699 57.4382C257.681 57.6233 257.699 57.8047 257.754 57.9825C257.809 58.1603 257.863 58.3382 257.918 58.516C257.972 58.6938 257.998 58.8653 257.997 59.0304C258.015 59.2118 257.96 59.4005 257.833 59.5964C257.566 60.4111 256.937 61.1976 255.948 61.9559C254.979 62.7305 253.625 63.6076 251.887 64.5872C251.018 65.077 250.295 65.4698 249.718 65.7655C249.138 66.0249 248.609 66.2425 248.131 66.4185C247.649 66.5581 247.174 66.6697 246.705 66.7531C246.252 66.8165 245.7 66.899 245.049 67.0006ZM238.27 54.3172C238.41 54.798 238.496 55.2843 238.527 55.776C238.574 56.2478 238.631 56.7277 238.698 57.2158C238.762 57.6676 238.882 58.132 239.058 58.6093C239.214 59.0701 239.48 59.5201 239.854 59.9593C240.347 59.1954 240.755 58.3119 241.076 57.3085C241.378 56.2889 241.668 55.3255 241.944 54.4183C241.259 53.9918 240.579 53.8031 239.904 53.852C239.246 53.881 238.701 54.036 238.27 54.3172Z" fill="#333333"/>
</svg>
